<svg width="1000" height="916" viewBox="0 0 1000 916" fill="none" xmlns="http://www.w3.org/2000/svg">
<path d="M0 671H1000V916H0V671Z" fill="#8ACCEF"/>
<g filter="url(#filter0_d_3_20)">
<rect x="445" y="810" width="110" height="40" rx="3" fill="#B4B4B6"/>
</g>
<rect x="464" y="827" width="73" height="6" fill="#7D7D7F"/>
<circle cx="453.5" cy="817.5" r="2.5" fill="#7D7D7F"/>
<circle cx="546.5" cy="842.5" r="2.5" fill="#7D7D7F"/>
<circle cx="453.5" cy="842.5" r="2.5" fill="#7D7D7F"/>
<circle cx="546.5" cy="817.5" r="2.5" fill="#7D7D7F"/>
<rect x="771.591" y="752" width="6.81818" height="156.818" rx="3.40909" fill="#71BDDF"/>
<rect x="843.182" y="802.455" width="6.81818" height="55.9091" rx="3.40909" fill="#71BDDF"/>
<rect x="828.864" y="782" width="6.81818" height="98.1818" rx="3.40909" fill="#71BDDF"/>
<rect x="814.545" y="767" width="6.81818" height="128.182" rx="3.40909" fill="#71BDDF"/>
<rect x="800.227" y="758.818" width="6.81818" height="144.545" rx="3.40909" fill="#71BDDF"/>
<rect x="785.909" y="753.364" width="6.81818" height="154.091" rx="3.40909" fill="#71BDDF"/>
<rect width="6.81818" height="55.9091" rx="3.40909" transform="matrix(-1 0 0 1 706.818 802.455)" fill="#71BDDF"/>
<rect width="6.81818" height="98.1818" rx="3.40909" transform="matrix(-1 0 0 1 721.136 782)" fill="#71BDDF"/>
<rect width="6.81818" height="128.182" rx="3.40909" transform="matrix(-1 0 0 1 735.455 767)" fill="#71BDDF"/>
<rect width="6.81818" height="144.545" rx="3.40909" transform="matrix(-1 0 0 1 749.773 758.818)" fill="#71BDDF"/>
<rect width="6.81818" height="154.091" rx="3.40909" transform="matrix(-1 0 0 1 764.091 753.364)" fill="#71BDDF"/>
<rect x="221.591" y="751" width="6.81818" height="156.818" rx="3.40909" fill="#71BDDF"/>
<rect x="293.182" y="801.455" width="6.81818" height="55.9091" rx="3.40909" fill="#71BDDF"/>
<rect x="278.864" y="781" width="6.81818" height="98.1818" rx="3.40909" fill="#71BDDF"/>
<rect x="264.545" y="766" width="6.81818" height="128.182" rx="3.40909" fill="#71BDDF"/>
<rect x="250.227" y="757.818" width="6.81818" height="144.545" rx="3.40909" fill="#71BDDF"/>
<rect x="235.909" y="752.364" width="6.81818" height="154.091" rx="3.40909" fill="#71BDDF"/>
<rect width="6.81818" height="55.9091" rx="3.40909" transform="matrix(-1 0 0 1 156.818 801.455)" fill="#71BDDF"/>
<rect width="6.81818" height="98.1818" rx="3.40909" transform="matrix(-1 0 0 1 171.136 781)" fill="#71BDDF"/>
<rect width="6.81818" height="128.182" rx="3.40909" transform="matrix(-1 0 0 1 185.455 766)" fill="#71BDDF"/>
<rect width="6.81818" height="144.545" rx="3.40909" transform="matrix(-1 0 0 1 199.773 757.818)" fill="#71BDDF"/>
<rect width="6.81818" height="154.091" rx="3.40909" transform="matrix(-1 0 0 1 214.091 752.364)" fill="#71BDDF"/>
<path d="M27.625 714.375V712.75H26V704.625H27.625V703H35.75V704.625H37.375V712.75H35.75V714.375H27.625ZM29.25 712.75H34.125V704.625H29.25V712.75ZM651.625 714.375V712.75H650V704.625H651.625V703H659.75V704.625H661.375V712.75H659.75V714.375H651.625ZM653.25 712.75H658.125V704.625H653.25V712.75Z" fill="#0EB7D0"/>
<path d="M56.875 714.375V704.625H53.625V703H63.375V704.625H60.125V714.375H56.875ZM69.875 704.625V703H73.125V704.625H69.875ZM66.625 714.375V712.75H69.875V707.875H68.25V706.25H73.125V712.75H76.375V714.375H66.625ZM79.625 714.375V712.75H78V707.875H79.625V706.25H89.375V707.875H81.25V712.75H89.375V714.375H79.625ZM95.875 714.375V704.625H92.625V703H102.375V704.625H99.125V714.375H95.875ZM105.625 714.375V712.75H104V711.125H105.625V709.5H112.125V707.875H105.625V706.25H113.75V707.875H115.375V714.375H105.625ZM107.25 712.75H112.125V711.125H107.25V712.75ZM118.625 714.375V712.75H117V707.875H118.625V706.25H128.375V707.875H120.25V712.75H128.375V714.375H118.625ZM134.875 714.375V704.625H131.625V703H141.375V704.625H138.125V714.375H134.875ZM144.625 714.375V712.75H143V707.875H144.625V706.25H152.75V707.875H154.375V712.75H152.75V714.375H144.625ZM146.25 712.75H151.125V707.875H146.25V712.75ZM157.625 714.375V712.75H156V707.875H157.625V706.25H165.75V707.875H167.375V711.125H159.25V712.75H165.75V714.375H157.625ZM159.25 709.5H164.125V707.875H159.25V709.5ZM183.625 714.375V712.75H182V703H185.25V706.25H191.75V707.875H193.375V712.75H191.75V714.375H183.625ZM185.25 712.75H190.125V707.875H185.25V712.75ZM196.625 716V714.375H203.125V712.75H196.625V711.125H195V706.25H198.25V711.125H203.125V706.25H206.375V714.375H204.75V716H196.625ZM222.625 714.375V712.75H221V711.125H222.625V709.5H229.125V707.875H222.625V706.25H230.75V707.875H232.375V714.375H222.625ZM224.25 712.75H229.125V711.125H224.25V712.75ZM238.875 707.875H240.5V709.5H238.875V714.375H235.625V706.25H238.875V707.875ZM245.375 706.25V707.875H240.5V706.25H245.375ZM251.875 704.625V703H255.125V704.625H251.875ZM248.625 714.375V712.75H251.875V707.875H250.25V706.25H255.125V712.75H258.375V714.375H248.625ZM260 714.375V712.75H268.125V711.125H261.625V709.5H260V707.875H261.625V706.25H269.75V707.875H263.25V709.5H269.75V711.125H271.375V712.75H269.75V714.375H260ZM274.625 714.375V712.75H273V711.125H274.625V709.5H281.125V707.875H274.625V706.25H282.75V707.875H284.375V714.375H274.625ZM276.25 712.75H281.125V711.125H276.25V712.75ZM290.875 707.875H292.5V709.5H290.875V714.375H287.625V706.25H290.875V707.875ZM297.375 706.25V707.875H292.5V706.25H297.375ZM300.625 714.375V712.75H299V711.125H300.625V709.5H307.125V707.875H300.625V706.25H308.75V707.875H310.375V714.375H300.625ZM302.25 712.75H307.125V711.125H302.25V712.75ZM313.625 714.375V712.75H312V707.875H313.625V706.25H321.75V707.875H323.375V711.125H315.25V712.75H321.75V714.375H313.625ZM315.25 709.5H320.125V707.875H315.25V709.5ZM368.875 714.375V704.625H365.625V703H375.375V704.625H372.125V714.375H368.875ZM381.875 704.625V703H385.125V704.625H381.875ZM378.625 714.375V712.75H381.875V707.875H380.25V706.25H385.125V712.75H388.375V714.375H378.625ZM391.625 714.375V712.75H390V707.875H391.625V706.25H401.375V707.875H393.25V712.75H401.375V714.375H391.625ZM407.875 714.375V704.625H404.625V703H414.375V704.625H411.125V714.375H407.875ZM417.625 714.375V712.75H416V711.125H417.625V709.5H424.125V707.875H417.625V706.25H425.75V707.875H427.375V714.375H417.625ZM419.25 712.75H424.125V711.125H419.25V712.75ZM430.625 714.375V712.75H429V707.875H430.625V706.25H440.375V707.875H432.25V712.75H440.375V714.375H430.625ZM446.875 714.375V704.625H443.625V703H453.375V704.625H450.125V714.375H446.875ZM456.625 714.375V712.75H455V707.875H456.625V706.25H464.75V707.875H466.375V712.75H464.75V714.375H456.625ZM458.25 712.75H463.125V707.875H458.25V712.75ZM469.625 714.375V712.75H468V707.875H469.625V706.25H477.75V707.875H479.375V711.125H471.25V712.75H477.75V714.375H469.625ZM471.25 709.5H476.125V707.875H471.25V709.5ZM495.625 714.375V712.75H494V703H497.25V706.25H503.75V707.875H505.375V712.75H503.75V714.375H495.625ZM497.25 712.75H502.125V707.875H497.25V712.75ZM508.625 716V714.375H515.125V712.75H508.625V711.125H507V706.25H510.25V711.125H515.125V706.25H518.375V714.375H516.75V716H508.625ZM534.625 714.375V712.75H533V711.125H534.625V709.5H541.125V707.875H534.625V706.25H542.75V707.875H544.375V714.375H534.625ZM536.25 712.75H541.125V711.125H536.25V712.75ZM550.875 707.875H552.5V709.5H550.875V714.375H547.625V706.25H550.875V707.875ZM557.375 706.25V707.875H552.5V706.25H557.375ZM563.875 704.625V703H567.125V704.625H563.875ZM560.625 714.375V712.75H563.875V707.875H562.25V706.25H567.125V712.75H570.375V714.375H560.625ZM572 714.375V712.75H580.125V711.125H573.625V709.5H572V707.875H573.625V706.25H581.75V707.875H575.25V709.5H581.75V711.125H583.375V712.75H581.75V714.375H572ZM586.625 714.375V712.75H585V711.125H586.625V709.5H593.125V707.875H586.625V706.25H594.75V707.875H596.375V714.375H586.625ZM588.25 712.75H593.125V711.125H588.25V712.75ZM602.875 707.875H604.5V709.5H602.875V714.375H599.625V706.25H602.875V707.875ZM609.375 706.25V707.875H604.5V706.25H609.375ZM612.625 714.375V712.75H611V711.125H612.625V709.5H619.125V707.875H612.625V706.25H620.75V707.875H622.375V714.375H612.625ZM614.25 712.75H619.125V711.125H614.25V712.75ZM625.625 714.375V712.75H624V707.875H625.625V706.25H633.75V707.875H635.375V711.125H627.25V712.75H633.75V714.375H625.625ZM627.25 709.5H632.125V707.875H627.25V709.5ZM680.875 714.375V704.625H677.625V703H687.375V704.625H684.125V714.375H680.875ZM693.875 704.625V703H697.125V704.625H693.875ZM690.625 714.375V712.75H693.875V707.875H692.25V706.25H697.125V712.75H700.375V714.375H690.625ZM703.625 714.375V712.75H702V707.875H703.625V706.25H713.375V707.875H705.25V712.75H713.375V714.375H703.625ZM719.875 714.375V704.625H716.625V703H726.375V704.625H723.125V714.375H719.875ZM729.625 714.375V712.75H728V711.125H729.625V709.5H736.125V707.875H729.625V706.25H737.75V707.875H739.375V714.375H729.625ZM731.25 712.75H736.125V711.125H731.25V712.75ZM742.625 714.375V712.75H741V707.875H742.625V706.25H752.375V707.875H744.25V712.75H752.375V714.375H742.625ZM758.875 714.375V704.625H755.625V703H765.375V704.625H762.125V714.375H758.875ZM768.625 714.375V712.75H767V707.875H768.625V706.25H776.75V707.875H778.375V712.75H776.75V714.375H768.625ZM770.25 712.75H775.125V707.875H770.25V712.75ZM781.625 714.375V712.75H780V707.875H781.625V706.25H789.75V707.875H791.375V711.125H783.25V712.75H789.75V714.375H781.625ZM783.25 709.5H788.125V707.875H783.25V709.5ZM807.625 714.375V712.75H806V703H809.25V706.25H815.75V707.875H817.375V712.75H815.75V714.375H807.625ZM809.25 712.75H814.125V707.875H809.25V712.75ZM820.625 716V714.375H827.125V712.75H820.625V711.125H819V706.25H822.25V711.125H827.125V706.25H830.375V714.375H828.75V716H820.625ZM846.625 714.375V712.75H845V711.125H846.625V709.5H853.125V707.875H846.625V706.25H854.75V707.875H856.375V714.375H846.625ZM848.25 712.75H853.125V711.125H848.25V712.75ZM862.875 707.875H864.5V709.5H862.875V714.375H859.625V706.25H862.875V707.875ZM869.375 706.25V707.875H864.5V706.25H869.375ZM875.875 704.625V703H879.125V704.625H875.875ZM872.625 714.375V712.75H875.875V707.875H874.25V706.25H879.125V712.75H882.375V714.375H872.625ZM884 714.375V712.75H892.125V711.125H885.625V709.5H884V707.875H885.625V706.25H893.75V707.875H887.25V709.5H893.75V711.125H895.375V712.75H893.75V714.375H884ZM898.625 714.375V712.75H897V711.125H898.625V709.5H905.125V707.875H898.625V706.25H906.75V707.875H908.375V714.375H898.625ZM900.25 712.75H905.125V711.125H900.25V712.75ZM914.875 707.875H916.5V709.5H914.875V714.375H911.625V706.25H914.875V707.875ZM921.375 706.25V707.875H916.5V706.25H921.375ZM924.625 714.375V712.75H923V711.125H924.625V709.5H931.125V707.875H924.625V706.25H932.75V707.875H934.375V714.375H924.625ZM926.25 712.75H931.125V711.125H926.25V712.75ZM937.625 714.375V712.75H936V707.875H937.625V706.25H945.75V707.875H947.375V711.125H939.25V712.75H945.75V714.375H937.625ZM939.25 709.5H944.125V707.875H939.25V709.5Z" fill="#F9F7F0"/>
<path d="M338 714.375V711.125H339.625V709.5H341.25V707.875H339.625V706.25H338V703H341.25V706.25H342.875V707.875H344.5V706.25H346.125V703H349.375V706.25H347.75V707.875H346.125V709.5H347.75V711.125H349.375V714.375H346.125V711.125H344.5V709.5H342.875V711.125H341.25V714.375H338ZM962 714.375V711.125H963.625V709.5H965.25V707.875H963.625V706.25H962V703H965.25V706.25H966.875V707.875H968.5V706.25H970.125V703H973.375V706.25H971.75V707.875H970.125V709.5H971.75V711.125H973.375V714.375H970.125V711.125H968.5V709.5H966.875V711.125H965.25V714.375H962Z" fill="#F5719D"/>
<line x1="29" y1="693.5" x2="973" y2="693.5" stroke="#F9F7F0" stroke-width="3"/>
<line y1="-1.5" x2="944" y2="-1.5" transform="matrix(1 0 0 -1 29 724)" stroke="#F9F7F0" stroke-width="3"/>
<path d="M973.5 671L973.5 916" stroke="#888785" stroke-width="5"/>
<path d="M28.5 671L28.5 916" stroke="#888785" stroke-width="5"/>
<path d="M0 671H1000L973.438 564.5H25.7812L0 671Z" fill="#63BBEB"/>
<ellipse cx="332.5" cy="647.833" rx="17.5" ry="4.53704" fill="#FAF7EE"/>
<g filter="url(#filter1_d_3_20)">
<ellipse cx="332.5" cy="645.889" rx="14.9074" ry="3.88889" fill="#F9E255"/>
</g>
<ellipse cx="297.5" cy="657.833" rx="17.5" ry="4.53704" fill="#FAF7EE"/>
<g filter="url(#filter2_d_3_20)">
<ellipse cx="297.5" cy="655.889" rx="14.9074" ry="3.88889" fill="#EB7197"/>
</g>
<ellipse cx="262.5" cy="647.833" rx="17.5" ry="4.53704" fill="#FAF7EE"/>
<g filter="url(#filter3_d_3_20)">
<ellipse cx="262.5" cy="645.889" rx="14.9074" ry="3.88889" fill="#EB7197"/>
</g>
<ellipse cx="227.5" cy="657.833" rx="17.5" ry="4.53704" fill="#FAF7EE"/>
<g filter="url(#filter4_d_3_20)">
<ellipse cx="227.5" cy="655.889" rx="14.9074" ry="3.88889" fill="#EB7197"/>
</g>
<ellipse cx="192.5" cy="647.833" rx="17.5" ry="4.53704" fill="#FAF7EE"/>
<g filter="url(#filter5_d_3_20)">
<ellipse cx="192.5" cy="645.889" rx="14.9074" ry="3.88889" fill="#EB7197"/>
</g>
<ellipse cx="807.5" cy="647.833" rx="17.5" ry="4.53704" fill="#FAF7EE"/>
<g filter="url(#filter6_d_3_20)">
<ellipse cx="807.5" cy="645.889" rx="14.9074" ry="3.88889" fill="#F9E255"/>
</g>
<ellipse cx="772.5" cy="657.833" rx="17.5" ry="4.53704" fill="#FAF7EE"/>
<g filter="url(#filter7_d_3_20)">
<ellipse cx="772.5" cy="655.889" rx="14.9074" ry="3.88889" fill="#EB7197"/>
</g>
<ellipse cx="737.5" cy="647.833" rx="17.5" ry="4.53704" fill="#FAF7EE"/>
<g filter="url(#filter8_d_3_20)">
<ellipse cx="737.5" cy="645.889" rx="14.9074" ry="3.88889" fill="#EB7197"/>
</g>
<ellipse cx="702.5" cy="657.833" rx="17.5" ry="4.53704" fill="#FAF7EE"/>
<g filter="url(#filter9_d_3_20)">
<ellipse cx="702.5" cy="655.889" rx="14.9074" ry="3.88889" fill="#EB7197"/>
</g>
<ellipse cx="667.5" cy="647.833" rx="17.5" ry="4.53704" fill="#FAF7EE"/>
<g filter="url(#filter10_d_3_20)">
<ellipse cx="667.5" cy="645.889" rx="14.9074" ry="3.88889" fill="#EB7197"/>
</g>
<path d="M25.7812 146.359H973.437V564.509H25.7812V146.359Z" fill="#89CDF4"/>
<path d="M53.125 147.141H947.656V632H53.125V147.141Z" fill="#FAF8EC"/>
<rect x="80.9375" y="173.391" width="837.344" height="428.75" rx="72.5" fill="url(#paint0_linear_3_20)" stroke="#B6B2B6" stroke-width="15"/>
<path d="M0 119.016H1000L973.438 147.141H25.7812L0 119.016Z" fill="#55B8EB"/>
<path d="M25.7812 119.016H973.437L947.656 147.141H53.125L25.7812 119.016Z" fill="#B9BDC0"/>
<path d="M0 15C0 6.71572 6.71573 0 15 0H985C993.284 0 1000 6.71573 1000 15V119.02H0V15Z" fill="#89CDF4"/>
<rect x="26.0937" y="17.0002" width="946" height="85" fill="#F9F7F0"/>
<path d="M944 632L943.5 564.5L971 671L944 632Z" fill="#737373"/>
<path d="M58 632V564.5L31 671L58 632Z" fill="#737373"/>
<path d="M948.5 564.5H943.5L971 671H976L948.5 564.5Z" fill="#7D898D"/>
<path d="M53 564.5H58L31 671H26L53 564.5Z" fill="#7D898D"/>
<path d="M30.7812 119.016H25.7812L53 147.141H58L30.7812 119.016Z" fill="#808588"/>
<path d="M948.5 147.141H943.5L971.5 119H976.5L948.5 147.141Z" fill="#808588"/>
<path d="M946 147.141V564.5" stroke="#888785" stroke-width="5"/>
<path d="M55.5 147.139V564.5" stroke="#888785" stroke-width="5"/>
<path d="M974.5 106.5L25.9998 106.5" stroke="#F9F7F0" stroke-width="3"/>
<path d="M974.5 7.5L25.9998 7.5" stroke="#F9F7F0" stroke-width="3"/>
<path d="M974 12.5001L25.9998 12.5001" stroke="#F9F7F0" stroke-width="3"/>
<path d="M974.5 111.5L25.9998 111.5" stroke="#F9F7F0" stroke-width="3"/>
<rect x="28" y="20" width="7.61265" height="7.61266" fill="#74C4F2"/>
<rect x="66.8245" y="20.7613" width="6.09012" height="6.09012" fill="#74C4F2"/>
<rect x="101.843" y="21.5225" width="4.56759" height="4.56759" fill="#74C4F2"/>
<rect x="149.955" y="22.7405" width="2.13154" height="2.13154" fill="#74C4F2"/>
<rect x="155.284" y="22.8928" width="1.82704" height="1.82704" fill="#74C4F2"/>
<rect x="144.474" y="22.5883" width="2.43605" height="2.43605" fill="#74C4F2"/>
<rect x="138.84" y="22.4361" width="2.74055" height="2.74056" fill="#74C4F2"/>
<rect x="133.055" y="22.2838" width="3.04506" height="3.04506" fill="#74C4F2"/>
<rect x="127.117" y="22.1315" width="3.34957" height="3.34957" fill="#74C4F2"/>
<rect x="121.027" y="21.9793" width="3.65407" height="3.65407" fill="#74C4F2"/>
<rect x="114.784" y="21.8271" width="3.95858" height="3.95858" fill="#74C4F2"/>
<rect x="108.39" y="21.6748" width="4.26309" height="4.26309" fill="#74C4F2"/>
<rect x="95.1436" y="21.3703" width="4.8721" height="4.8721" fill="#74C4F2"/>
<rect x="88.2922" y="21.218" width="5.1766" height="5.17661" fill="#74C4F2"/>
<rect x="81.2886" y="21.0658" width="5.48111" height="5.48111" fill="#74C4F2"/>
<rect x="74.1327" y="20.9135" width="5.78561" height="5.78562" fill="#74C4F2"/>
<rect x="59.3641" y="20.609" width="6.39463" height="6.39463" fill="#74C4F2"/>
<rect x="51.7515" y="20.4567" width="6.69913" height="6.69914" fill="#74C4F2"/>
<rect x="43.9866" y="20.3045" width="7.00364" height="7.00364" fill="#74C4F2"/>
<rect x="36.0694" y="20.1523" width="7.30815" height="7.30815" fill="#74C4F2"/>
<rect x="28" y="28.043" width="7.61265" height="7.61266" fill="#74C4F2"/>
<rect x="66.8245" y="28.8043" width="6.09012" height="6.09012" fill="#74C4F2"/>
<rect x="101.843" y="29.5656" width="4.56759" height="4.56759" fill="#74C4F2"/>
<rect x="149.955" y="30.7836" width="2.13154" height="2.13154" fill="#74C4F2"/>
<rect x="155.284" y="30.9358" width="1.82704" height="1.82704" fill="#74C4F2"/>
<rect x="144.474" y="30.6314" width="2.43605" height="2.43605" fill="#74C4F2"/>
<rect x="138.84" y="30.4791" width="2.74055" height="2.74056" fill="#74C4F2"/>
<rect x="133.055" y="30.3268" width="3.04506" height="3.04506" fill="#74C4F2"/>
<rect x="127.117" y="30.1746" width="3.34957" height="3.34957" fill="#74C4F2"/>
<rect x="121.027" y="30.0223" width="3.65407" height="3.65407" fill="#74C4F2"/>
<rect x="114.784" y="29.8701" width="3.95858" height="3.95858" fill="#74C4F2"/>
<rect x="108.39" y="29.7178" width="4.26309" height="4.26309" fill="#74C4F2"/>
<rect x="95.1436" y="29.4133" width="4.8721" height="4.8721" fill="#74C4F2"/>
<rect x="88.2922" y="29.261" width="5.1766" height="5.17661" fill="#74C4F2"/>
<rect x="81.2886" y="29.1088" width="5.48111" height="5.48111" fill="#74C4F2"/>
<rect x="74.1327" y="28.9566" width="5.78561" height="5.78562" fill="#74C4F2"/>
<rect x="59.3641" y="28.652" width="6.39463" height="6.39463" fill="#74C4F2"/>
<rect x="51.7515" y="28.4998" width="6.69913" height="6.69914" fill="#74C4F2"/>
<rect x="43.9866" y="28.3476" width="7.00364" height="7.00364" fill="#74C4F2"/>
<rect x="36.0694" y="28.1953" width="7.30815" height="7.30815" fill="#74C4F2"/>
<rect x="28" y="36.0861" width="7.61265" height="7.61266" fill="#74C4F2"/>
<rect x="66.8245" y="36.8473" width="6.09012" height="6.09012" fill="#74C4F2"/>
<rect x="101.843" y="37.6086" width="4.56759" height="4.56759" fill="#74C4F2"/>
<rect x="149.955" y="38.8266" width="2.13154" height="2.13154" fill="#74C4F2"/>
<rect x="155.284" y="38.9789" width="1.82704" height="1.82704" fill="#74C4F2"/>
<rect x="144.474" y="38.6744" width="2.43605" height="2.43605" fill="#74C4F2"/>
<rect x="138.84" y="38.5221" width="2.74055" height="2.74056" fill="#74C4F2"/>
<rect x="133.055" y="38.3699" width="3.04506" height="3.04506" fill="#74C4F2"/>
<rect x="127.117" y="38.2176" width="3.34957" height="3.34957" fill="#74C4F2"/>
<rect x="121.027" y="38.0653" width="3.65407" height="3.65407" fill="#74C4F2"/>
<rect x="114.784" y="37.9131" width="3.95858" height="3.95858" fill="#74C4F2"/>
<rect x="108.39" y="37.7609" width="4.26309" height="4.26309" fill="#74C4F2"/>
<rect x="95.1436" y="37.4563" width="4.8721" height="4.8721" fill="#74C4F2"/>
<rect x="88.2922" y="37.3041" width="5.1766" height="5.17661" fill="#74C4F2"/>
<rect x="81.2886" y="37.1519" width="5.48111" height="5.48111" fill="#74C4F2"/>
<rect x="74.1327" y="36.9996" width="5.78561" height="5.78562" fill="#74C4F2"/>
<rect x="59.3641" y="36.6951" width="6.39463" height="6.39463" fill="#74C4F2"/>
<rect x="51.7515" y="36.5428" width="6.69913" height="6.69914" fill="#74C4F2"/>
<rect x="43.9866" y="36.3906" width="7.00364" height="7.00364" fill="#74C4F2"/>
<rect x="36.0694" y="36.2383" width="7.30815" height="7.30815" fill="#74C4F2"/>
<rect x="28" y="44.1291" width="7.61265" height="7.61266" fill="#74C4F2"/>
<rect x="66.8245" y="44.8904" width="6.09012" height="6.09012" fill="#74C4F2"/>
<rect x="101.843" y="45.6517" width="4.56759" height="4.56759" fill="#74C4F2"/>
<rect x="149.955" y="46.8697" width="2.13154" height="2.13154" fill="#74C4F2"/>
<rect x="155.284" y="47.0219" width="1.82704" height="1.82704" fill="#74C4F2"/>
<rect x="144.474" y="46.7174" width="2.43605" height="2.43605" fill="#74C4F2"/>
<rect x="138.84" y="46.5652" width="2.74055" height="2.74056" fill="#74C4F2"/>
<rect x="133.055" y="46.4129" width="3.04506" height="3.04506" fill="#74C4F2"/>
<rect x="127.117" y="46.2607" width="3.34957" height="3.34957" fill="#74C4F2"/>
<rect x="121.027" y="46.1084" width="3.65407" height="3.65407" fill="#74C4F2"/>
<rect x="114.784" y="45.9562" width="3.95858" height="3.95858" fill="#74C4F2"/>
<rect x="108.39" y="45.8039" width="4.26309" height="4.26309" fill="#74C4F2"/>
<rect x="95.1436" y="45.4994" width="4.8721" height="4.8721" fill="#74C4F2"/>
<rect x="88.2922" y="45.3471" width="5.1766" height="5.17661" fill="#74C4F2"/>
<rect x="81.2886" y="45.1949" width="5.48111" height="5.48111" fill="#74C4F2"/>
<rect x="74.1327" y="45.0426" width="5.78561" height="5.78562" fill="#74C4F2"/>
<rect x="59.3641" y="44.7381" width="6.39463" height="6.39463" fill="#74C4F2"/>
<rect x="51.7515" y="44.5859" width="6.69913" height="6.69914" fill="#74C4F2"/>
<rect x="43.9866" y="44.4337" width="7.00364" height="7.00364" fill="#74C4F2"/>
<rect x="36.0694" y="44.2814" width="7.30815" height="7.30815" fill="#74C4F2"/>
<rect x="28" y="52.1721" width="7.61265" height="7.61266" fill="#74C4F2"/>
<rect x="66.8245" y="52.9334" width="6.09012" height="6.09012" fill="#74C4F2"/>
<rect x="101.843" y="53.6947" width="4.56759" height="4.56759" fill="#74C4F2"/>
<rect x="149.955" y="54.9127" width="2.13154" height="2.13154" fill="#74C4F2"/>
<rect x="155.284" y="55.065" width="1.82704" height="1.82704" fill="#74C4F2"/>
<rect x="144.474" y="54.7605" width="2.43605" height="2.43605" fill="#74C4F2"/>
<rect x="138.84" y="54.6082" width="2.74055" height="2.74056" fill="#74C4F2"/>
<rect x="133.055" y="54.4559" width="3.04506" height="3.04506" fill="#74C4F2"/>
<rect x="127.117" y="54.3037" width="3.34957" height="3.34957" fill="#74C4F2"/>
<rect x="121.027" y="54.1514" width="3.65407" height="3.65407" fill="#74C4F2"/>
<rect x="114.784" y="53.9992" width="3.95858" height="3.95858" fill="#74C4F2"/>
<rect x="108.39" y="53.8469" width="4.26309" height="4.26309" fill="#74C4F2"/>
<rect x="95.1436" y="53.5424" width="4.8721" height="4.8721" fill="#74C4F2"/>
<rect x="88.2922" y="53.3902" width="5.1766" height="5.17661" fill="#74C4F2"/>
<rect x="81.2886" y="53.2379" width="5.48111" height="5.48111" fill="#74C4F2"/>
<rect x="74.1327" y="53.0857" width="5.78561" height="5.78562" fill="#74C4F2"/>
<rect x="59.3641" y="52.7812" width="6.39463" height="6.39463" fill="#74C4F2"/>
<rect x="51.7515" y="52.6289" width="6.69913" height="6.69914" fill="#74C4F2"/>
<rect x="43.9866" y="52.4767" width="7.00364" height="7.00364" fill="#74C4F2"/>
<rect x="36.0694" y="52.3244" width="7.30815" height="7.30815" fill="#74C4F2"/>
<rect x="28" y="60.2152" width="7.61265" height="7.61266" fill="#74C4F2"/>
<rect x="66.8245" y="60.9765" width="6.09012" height="6.09012" fill="#74C4F2"/>
<rect x="101.843" y="61.7377" width="4.56759" height="4.56759" fill="#74C4F2"/>
<rect x="149.955" y="62.9557" width="2.13154" height="2.13154" fill="#74C4F2"/>
<rect x="155.284" y="63.108" width="1.82704" height="1.82704" fill="#74C4F2"/>
<rect x="144.474" y="62.8035" width="2.43605" height="2.43605" fill="#74C4F2"/>
<rect x="138.84" y="62.6513" width="2.74055" height="2.74056" fill="#74C4F2"/>
<rect x="133.055" y="62.499" width="3.04506" height="3.04506" fill="#74C4F2"/>
<rect x="127.117" y="62.3467" width="3.34957" height="3.34957" fill="#74C4F2"/>
<rect x="121.027" y="62.1945" width="3.65407" height="3.65407" fill="#74C4F2"/>
<rect x="114.784" y="62.0423" width="3.95858" height="3.95858" fill="#74C4F2"/>
<rect x="108.39" y="61.89" width="4.26309" height="4.26309" fill="#74C4F2"/>
<rect x="95.1436" y="61.5855" width="4.8721" height="4.8721" fill="#74C4F2"/>
<rect x="88.2922" y="61.4332" width="5.1766" height="5.17661" fill="#74C4F2"/>
<rect x="81.2886" y="61.281" width="5.48111" height="5.48111" fill="#74C4F2"/>
<rect x="74.1327" y="61.1287" width="5.78561" height="5.78562" fill="#74C4F2"/>
<rect x="59.3641" y="60.8242" width="6.39463" height="6.39463" fill="#74C4F2"/>
<rect x="51.7515" y="60.6719" width="6.69913" height="6.69914" fill="#74C4F2"/>
<rect x="43.9866" y="60.5197" width="7.00364" height="7.00364" fill="#74C4F2"/>
<rect x="36.0694" y="60.3675" width="7.30815" height="7.30815" fill="#74C4F2"/>
<rect x="28" y="68.2582" width="7.61265" height="7.61266" fill="#74C4F2"/>
<rect x="66.8245" y="69.0195" width="6.09012" height="6.09012" fill="#74C4F2"/>
<rect x="101.843" y="69.7808" width="4.56759" height="4.56759" fill="#74C4F2"/>
<rect x="149.955" y="70.9988" width="2.13154" height="2.13154" fill="#74C4F2"/>
<rect x="155.284" y="71.151" width="1.82704" height="1.82704" fill="#74C4F2"/>
<rect x="144.474" y="70.8465" width="2.43605" height="2.43605" fill="#74C4F2"/>
<rect x="138.84" y="70.6943" width="2.74055" height="2.74056" fill="#74C4F2"/>
<rect x="133.055" y="70.542" width="3.04506" height="3.04506" fill="#74C4F2"/>
<rect x="127.117" y="70.3898" width="3.34957" height="3.34957" fill="#74C4F2"/>
<rect x="121.027" y="70.2375" width="3.65407" height="3.65407" fill="#74C4F2"/>
<rect x="114.784" y="70.0853" width="3.95858" height="3.95858" fill="#74C4F2"/>
<rect x="108.39" y="69.933" width="4.26309" height="4.26309" fill="#74C4F2"/>
<rect x="95.1436" y="69.6285" width="4.8721" height="4.8721" fill="#74C4F2"/>
<rect x="88.2922" y="69.4762" width="5.1766" height="5.17661" fill="#74C4F2"/>
<rect x="81.2886" y="69.324" width="5.48111" height="5.48111" fill="#74C4F2"/>
<rect x="74.1327" y="69.1718" width="5.78561" height="5.78562" fill="#74C4F2"/>
<rect x="59.3641" y="68.8672" width="6.39463" height="6.39463" fill="#74C4F2"/>
<rect x="51.7515" y="68.715" width="6.69913" height="6.69914" fill="#74C4F2"/>
<rect x="43.9866" y="68.5628" width="7.00364" height="7.00364" fill="#74C4F2"/>
<rect x="36.0694" y="68.4105" width="7.30815" height="7.30815" fill="#74C4F2"/>
<rect x="28" y="76.3013" width="7.61265" height="7.61266" fill="#74C4F2"/>
<rect x="66.8245" y="77.0625" width="6.09012" height="6.09012" fill="#74C4F2"/>
<rect x="101.843" y="77.8238" width="4.56759" height="4.56759" fill="#74C4F2"/>
<rect x="149.955" y="79.0418" width="2.13154" height="2.13154" fill="#74C4F2"/>
<rect x="155.284" y="79.1941" width="1.82704" height="1.82704" fill="#74C4F2"/>
<rect x="144.474" y="78.8896" width="2.43605" height="2.43605" fill="#74C4F2"/>
<rect x="138.84" y="78.7373" width="2.74055" height="2.74056" fill="#74C4F2"/>
<rect x="133.055" y="78.5851" width="3.04506" height="3.04506" fill="#74C4F2"/>
<rect x="127.117" y="78.4328" width="3.34957" height="3.34957" fill="#74C4F2"/>
<rect x="121.027" y="78.2805" width="3.65407" height="3.65407" fill="#74C4F2"/>
<rect x="114.784" y="78.1283" width="3.95858" height="3.95858" fill="#74C4F2"/>
<rect x="108.39" y="77.9761" width="4.26309" height="4.26309" fill="#74C4F2"/>
<rect x="95.1436" y="77.6715" width="4.8721" height="4.8721" fill="#74C4F2"/>
<rect x="88.2922" y="77.5193" width="5.1766" height="5.17661" fill="#74C4F2"/>
<rect x="81.2886" y="77.3671" width="5.48111" height="5.48111" fill="#74C4F2"/>
<rect x="74.1327" y="77.2148" width="5.78561" height="5.78562" fill="#74C4F2"/>
<rect x="59.3641" y="76.9103" width="6.39463" height="6.39463" fill="#74C4F2"/>
<rect x="51.7515" y="76.758" width="6.69913" height="6.69914" fill="#74C4F2"/>
<rect x="43.9866" y="76.6058" width="7.00364" height="7.00364" fill="#74C4F2"/>
<rect x="36.0694" y="76.4535" width="7.30815" height="7.30815" fill="#74C4F2"/>
<rect x="28" y="84.3443" width="7.61265" height="7.61266" fill="#74C4F2"/>
<rect x="66.8245" y="85.1056" width="6.09012" height="6.09012" fill="#74C4F2"/>
<rect x="101.843" y="85.8668" width="4.56759" height="4.56759" fill="#74C4F2"/>
<rect x="149.955" y="87.0848" width="2.13154" height="2.13154" fill="#74C4F2"/>
<rect x="155.284" y="87.2371" width="1.82704" height="1.82704" fill="#74C4F2"/>
<rect x="144.474" y="86.9326" width="2.43605" height="2.43605" fill="#74C4F2"/>
<rect x="138.84" y="86.7804" width="2.74055" height="2.74056" fill="#74C4F2"/>
<rect x="133.055" y="86.6281" width="3.04506" height="3.04506" fill="#74C4F2"/>
<rect x="127.117" y="86.4758" width="3.34957" height="3.34957" fill="#74C4F2"/>
<rect x="121.027" y="86.3236" width="3.65407" height="3.65407" fill="#74C4F2"/>
<rect x="114.784" y="86.1713" width="3.95858" height="3.95858" fill="#74C4F2"/>
<rect x="108.39" y="86.0191" width="4.26309" height="4.26309" fill="#74C4F2"/>
<rect x="95.1436" y="85.7146" width="4.8721" height="4.8721" fill="#74C4F2"/>
<rect x="88.2922" y="85.5623" width="5.1766" height="5.17661" fill="#74C4F2"/>
<rect x="81.2886" y="85.4101" width="5.48111" height="5.48111" fill="#74C4F2"/>
<rect x="74.1327" y="85.2578" width="5.78561" height="5.78562" fill="#74C4F2"/>
<rect x="59.3641" y="84.9533" width="6.39463" height="6.39463" fill="#74C4F2"/>
<rect x="51.7515" y="84.801" width="6.69913" height="6.69914" fill="#74C4F2"/>
<rect x="43.9866" y="84.6488" width="7.00364" height="7.00364" fill="#74C4F2"/>
<rect x="36.0694" y="84.4966" width="7.30815" height="7.30815" fill="#74C4F2"/>
<rect x="28" y="92.3873" width="7.61265" height="7.61266" fill="#74C4F2"/>
<rect x="66.8245" y="93.1486" width="6.09012" height="6.09012" fill="#74C4F2"/>
<rect x="101.843" y="93.9099" width="4.56759" height="4.56759" fill="#74C4F2"/>
<rect x="149.955" y="95.1279" width="2.13154" height="2.13154" fill="#74C4F2"/>
<rect x="155.284" y="95.2802" width="1.82704" height="1.82704" fill="#74C4F2"/>
<rect x="144.474" y="94.9757" width="2.43605" height="2.43605" fill="#74C4F2"/>
<rect x="138.84" y="94.8234" width="2.74055" height="2.74056" fill="#74C4F2"/>
<rect x="133.055" y="94.6711" width="3.04506" height="3.04506" fill="#74C4F2"/>
<rect x="127.117" y="94.5189" width="3.34957" height="3.34957" fill="#74C4F2"/>
<rect x="121.027" y="94.3666" width="3.65407" height="3.65407" fill="#74C4F2"/>
<rect x="114.784" y="94.2144" width="3.95858" height="3.95858" fill="#74C4F2"/>
<rect x="108.39" y="94.0621" width="4.26309" height="4.26309" fill="#74C4F2"/>
<rect x="95.1436" y="93.7576" width="4.8721" height="4.8721" fill="#74C4F2"/>
<rect x="88.2922" y="93.6053" width="5.1766" height="5.17661" fill="#74C4F2"/>
<rect x="81.2886" y="93.4531" width="5.48111" height="5.48111" fill="#74C4F2"/>
<rect x="74.1327" y="93.3009" width="5.78561" height="5.78562" fill="#74C4F2"/>
<rect x="59.3641" y="92.9963" width="6.39463" height="6.39463" fill="#74C4F2"/>
<rect x="51.7515" y="92.8441" width="6.69913" height="6.69914" fill="#74C4F2"/>
<rect x="43.9866" y="92.6919" width="7.00364" height="7.00364" fill="#74C4F2"/>
<rect x="36.0694" y="92.5396" width="7.30815" height="7.30815" fill="#74C4F2"/>
<rect width="7.61265" height="7.61266" transform="matrix(-1 0 0 1 974.111 20)" fill="#74C4F2"/>
<rect width="6.09012" height="6.09012" transform="matrix(-1 0 0 1 935.286 20.7613)" fill="#74C4F2"/>
<rect width="4.56759" height="4.56759" transform="matrix(-1 0 0 1 900.268 21.5225)" fill="#74C4F2"/>
<rect width="2.13154" height="2.13154" transform="matrix(-1 0 0 1 852.156 22.7405)" fill="#74C4F2"/>
<rect width="1.82704" height="1.82704" transform="matrix(-1 0 0 1 846.827 22.8928)" fill="#74C4F2"/>
<rect width="2.43605" height="2.43605" transform="matrix(-1 0 0 1 857.637 22.5883)" fill="#74C4F2"/>
<rect width="2.74055" height="2.74056" transform="matrix(-1 0 0 1 863.27 22.4361)" fill="#74C4F2"/>
<rect width="3.04506" height="3.04506" transform="matrix(-1 0 0 1 869.056 22.2838)" fill="#74C4F2"/>
<rect width="3.34957" height="3.34957" transform="matrix(-1 0 0 1 874.994 22.1315)" fill="#74C4F2"/>
<rect width="3.65407" height="3.65407" transform="matrix(-1 0 0 1 881.084 21.9793)" fill="#74C4F2"/>
<rect width="3.95858" height="3.95858" transform="matrix(-1 0 0 1 887.326 21.8271)" fill="#74C4F2"/>
<rect width="4.26309" height="4.26309" transform="matrix(-1 0 0 1 893.721 21.6748)" fill="#74C4F2"/>
<rect width="4.8721" height="4.8721" transform="matrix(-1 0 0 1 906.967 21.3703)" fill="#74C4F2"/>
<rect width="5.1766" height="5.17661" transform="matrix(-1 0 0 1 913.818 21.218)" fill="#74C4F2"/>
<rect width="5.48111" height="5.48111" transform="matrix(-1 0 0 1 920.822 21.0658)" fill="#74C4F2"/>
<rect width="5.78561" height="5.78562" transform="matrix(-1 0 0 1 927.978 20.9135)" fill="#74C4F2"/>
<rect width="6.39463" height="6.39463" transform="matrix(-1 0 0 1 942.746 20.609)" fill="#74C4F2"/>
<rect width="6.69913" height="6.69914" transform="matrix(-1 0 0 1 950.359 20.4567)" fill="#74C4F2"/>
<rect width="7.00364" height="7.00364" transform="matrix(-1 0 0 1 958.124 20.3045)" fill="#74C4F2"/>
<rect width="7.30815" height="7.30815" transform="matrix(-1 0 0 1 966.041 20.1523)" fill="#74C4F2"/>
<rect width="7.61265" height="7.61266" transform="matrix(-1 0 0 1 974.111 28.043)" fill="#74C4F2"/>
<rect width="6.09012" height="6.09012" transform="matrix(-1 0 0 1 935.286 28.8043)" fill="#74C4F2"/>
<rect width="4.56759" height="4.56759" transform="matrix(-1 0 0 1 900.268 29.5656)" fill="#74C4F2"/>
<rect width="2.13154" height="2.13154" transform="matrix(-1 0 0 1 852.156 30.7836)" fill="#74C4F2"/>
<rect width="1.82704" height="1.82704" transform="matrix(-1 0 0 1 846.827 30.9358)" fill="#74C4F2"/>
<rect width="2.43605" height="2.43605" transform="matrix(-1 0 0 1 857.637 30.6314)" fill="#74C4F2"/>
<rect width="2.74055" height="2.74056" transform="matrix(-1 0 0 1 863.27 30.4791)" fill="#74C4F2"/>
<rect width="3.04506" height="3.04506" transform="matrix(-1 0 0 1 869.056 30.3268)" fill="#74C4F2"/>
<rect width="3.34957" height="3.34957" transform="matrix(-1 0 0 1 874.994 30.1746)" fill="#74C4F2"/>
<rect width="3.65407" height="3.65407" transform="matrix(-1 0 0 1 881.084 30.0223)" fill="#74C4F2"/>
<rect width="3.95858" height="3.95858" transform="matrix(-1 0 0 1 887.326 29.8701)" fill="#74C4F2"/>
<rect width="4.26309" height="4.26309" transform="matrix(-1 0 0 1 893.721 29.7178)" fill="#74C4F2"/>
<rect width="4.8721" height="4.8721" transform="matrix(-1 0 0 1 906.967 29.4133)" fill="#74C4F2"/>
<rect width="5.1766" height="5.17661" transform="matrix(-1 0 0 1 913.818 29.261)" fill="#74C4F2"/>
<rect width="5.48111" height="5.48111" transform="matrix(-1 0 0 1 920.822 29.1088)" fill="#74C4F2"/>
<rect width="5.78561" height="5.78562" transform="matrix(-1 0 0 1 927.978 28.9566)" fill="#74C4F2"/>
<rect width="6.39463" height="6.39463" transform="matrix(-1 0 0 1 942.746 28.652)" fill="#74C4F2"/>
<rect width="6.69913" height="6.69914" transform="matrix(-1 0 0 1 950.359 28.4998)" fill="#74C4F2"/>
<rect width="7.00364" height="7.00364" transform="matrix(-1 0 0 1 958.124 28.3476)" fill="#74C4F2"/>
<rect width="7.30815" height="7.30815" transform="matrix(-1 0 0 1 966.041 28.1953)" fill="#74C4F2"/>
<rect width="7.61265" height="7.61266" transform="matrix(-1 0 0 1 974.111 36.0861)" fill="#74C4F2"/>
<rect width="6.09012" height="6.09012" transform="matrix(-1 0 0 1 935.286 36.8473)" fill="#74C4F2"/>
<rect width="4.56759" height="4.56759" transform="matrix(-1 0 0 1 900.268 37.6086)" fill="#74C4F2"/>
<rect width="2.13154" height="2.13154" transform="matrix(-1 0 0 1 852.156 38.8266)" fill="#74C4F2"/>
<rect width="1.82704" height="1.82704" transform="matrix(-1 0 0 1 846.827 38.9789)" fill="#74C4F2"/>
<rect width="2.43605" height="2.43605" transform="matrix(-1 0 0 1 857.637 38.6744)" fill="#74C4F2"/>
<rect width="2.74055" height="2.74056" transform="matrix(-1 0 0 1 863.27 38.5221)" fill="#74C4F2"/>
<rect width="3.04506" height="3.04506" transform="matrix(-1 0 0 1 869.056 38.3699)" fill="#74C4F2"/>
<rect width="3.34957" height="3.34957" transform="matrix(-1 0 0 1 874.994 38.2176)" fill="#74C4F2"/>
<rect width="3.65407" height="3.65407" transform="matrix(-1 0 0 1 881.084 38.0653)" fill="#74C4F2"/>
<rect width="3.95858" height="3.95858" transform="matrix(-1 0 0 1 887.326 37.9131)" fill="#74C4F2"/>
<rect width="4.26309" height="4.26309" transform="matrix(-1 0 0 1 893.721 37.7609)" fill="#74C4F2"/>
<rect width="4.8721" height="4.8721" transform="matrix(-1 0 0 1 906.967 37.4563)" fill="#74C4F2"/>
<rect width="5.1766" height="5.17661" transform="matrix(-1 0 0 1 913.818 37.3041)" fill="#74C4F2"/>
<rect width="5.48111" height="5.48111" transform="matrix(-1 0 0 1 920.822 37.1519)" fill="#74C4F2"/>
<rect width="5.78561" height="5.78562" transform="matrix(-1 0 0 1 927.978 36.9996)" fill="#74C4F2"/>
<rect width="6.39463" height="6.39463" transform="matrix(-1 0 0 1 942.746 36.6951)" fill="#74C4F2"/>
<rect width="6.69913" height="6.69914" transform="matrix(-1 0 0 1 950.359 36.5428)" fill="#74C4F2"/>
<rect width="7.00364" height="7.00364" transform="matrix(-1 0 0 1 958.124 36.3906)" fill="#74C4F2"/>
<rect width="7.30815" height="7.30815" transform="matrix(-1 0 0 1 966.041 36.2383)" fill="#74C4F2"/>
<rect width="7.61265" height="7.61266" transform="matrix(-1 0 0 1 974.111 44.1291)" fill="#74C4F2"/>
<rect width="6.09012" height="6.09012" transform="matrix(-1 0 0 1 935.286 44.8904)" fill="#74C4F2"/>
<rect width="4.56759" height="4.56759" transform="matrix(-1 0 0 1 900.268 45.6517)" fill="#74C4F2"/>
<rect width="2.13154" height="2.13154" transform="matrix(-1 0 0 1 852.156 46.8697)" fill="#74C4F2"/>
<rect width="1.82704" height="1.82704" transform="matrix(-1 0 0 1 846.827 47.0219)" fill="#74C4F2"/>
<rect width="2.43605" height="2.43605" transform="matrix(-1 0 0 1 857.637 46.7174)" fill="#74C4F2"/>
<rect width="2.74055" height="2.74056" transform="matrix(-1 0 0 1 863.27 46.5652)" fill="#74C4F2"/>
<rect width="3.04506" height="3.04506" transform="matrix(-1 0 0 1 869.056 46.4129)" fill="#74C4F2"/>
<rect width="3.34957" height="3.34957" transform="matrix(-1 0 0 1 874.994 46.2607)" fill="#74C4F2"/>
<rect width="3.65407" height="3.65407" transform="matrix(-1 0 0 1 881.084 46.1084)" fill="#74C4F2"/>
<rect width="3.95858" height="3.95858" transform="matrix(-1 0 0 1 887.326 45.9562)" fill="#74C4F2"/>
<rect width="4.26309" height="4.26309" transform="matrix(-1 0 0 1 893.721 45.8039)" fill="#74C4F2"/>
<rect width="4.8721" height="4.8721" transform="matrix(-1 0 0 1 906.967 45.4994)" fill="#74C4F2"/>
<rect width="5.1766" height="5.17661" transform="matrix(-1 0 0 1 913.818 45.3471)" fill="#74C4F2"/>
<rect width="5.48111" height="5.48111" transform="matrix(-1 0 0 1 920.822 45.1949)" fill="#74C4F2"/>
<rect width="5.78561" height="5.78562" transform="matrix(-1 0 0 1 927.978 45.0426)" fill="#74C4F2"/>
<rect width="6.39463" height="6.39463" transform="matrix(-1 0 0 1 942.746 44.7381)" fill="#74C4F2"/>
<rect width="6.69913" height="6.69914" transform="matrix(-1 0 0 1 950.359 44.5859)" fill="#74C4F2"/>
<rect width="7.00364" height="7.00364" transform="matrix(-1 0 0 1 958.124 44.4337)" fill="#74C4F2"/>
<rect width="7.30815" height="7.30815" transform="matrix(-1 0 0 1 966.041 44.2814)" fill="#74C4F2"/>
<rect width="7.61265" height="7.61266" transform="matrix(-1 0 0 1 974.111 52.1721)" fill="#74C4F2"/>
<rect width="6.09012" height="6.09012" transform="matrix(-1 0 0 1 935.286 52.9334)" fill="#74C4F2"/>
<rect width="4.56759" height="4.56759" transform="matrix(-1 0 0 1 900.268 53.6947)" fill="#74C4F2"/>
<rect width="2.13154" height="2.13154" transform="matrix(-1 0 0 1 852.156 54.9127)" fill="#74C4F2"/>
<rect width="1.82704" height="1.82704" transform="matrix(-1 0 0 1 846.827 55.065)" fill="#74C4F2"/>
<rect width="2.43605" height="2.43605" transform="matrix(-1 0 0 1 857.637 54.7605)" fill="#74C4F2"/>
<rect width="2.74055" height="2.74056" transform="matrix(-1 0 0 1 863.27 54.6082)" fill="#74C4F2"/>
<rect width="3.04506" height="3.04506" transform="matrix(-1 0 0 1 869.056 54.4559)" fill="#74C4F2"/>
<rect width="3.34957" height="3.34957" transform="matrix(-1 0 0 1 874.994 54.3037)" fill="#74C4F2"/>
<rect width="3.65407" height="3.65407" transform="matrix(-1 0 0 1 881.084 54.1514)" fill="#74C4F2"/>
<rect width="3.95858" height="3.95858" transform="matrix(-1 0 0 1 887.326 53.9992)" fill="#74C4F2"/>
<rect width="4.26309" height="4.26309" transform="matrix(-1 0 0 1 893.721 53.8469)" fill="#74C4F2"/>
<rect width="4.8721" height="4.8721" transform="matrix(-1 0 0 1 906.967 53.5424)" fill="#74C4F2"/>
<rect width="5.1766" height="5.17661" transform="matrix(-1 0 0 1 913.818 53.3902)" fill="#74C4F2"/>
<rect width="5.48111" height="5.48111" transform="matrix(-1 0 0 1 920.822 53.2379)" fill="#74C4F2"/>
<rect width="5.78561" height="5.78562" transform="matrix(-1 0 0 1 927.978 53.0857)" fill="#74C4F2"/>
<rect width="6.39463" height="6.39463" transform="matrix(-1 0 0 1 942.746 52.7812)" fill="#74C4F2"/>
<rect width="6.69913" height="6.69914" transform="matrix(-1 0 0 1 950.359 52.6289)" fill="#74C4F2"/>
<rect width="7.00364" height="7.00364" transform="matrix(-1 0 0 1 958.124 52.4767)" fill="#74C4F2"/>
<rect width="7.30815" height="7.30815" transform="matrix(-1 0 0 1 966.041 52.3244)" fill="#74C4F2"/>
<rect width="7.61265" height="7.61266" transform="matrix(-1 0 0 1 974.111 60.2152)" fill="#74C4F2"/>
<rect width="6.09012" height="6.09012" transform="matrix(-1 0 0 1 935.286 60.9765)" fill="#74C4F2"/>
<rect width="4.56759" height="4.56759" transform="matrix(-1 0 0 1 900.268 61.7377)" fill="#74C4F2"/>
<rect width="2.13154" height="2.13154" transform="matrix(-1 0 0 1 852.156 62.9557)" fill="#74C4F2"/>
<rect width="1.82704" height="1.82704" transform="matrix(-1 0 0 1 846.827 63.108)" fill="#74C4F2"/>
<rect width="2.43605" height="2.43605" transform="matrix(-1 0 0 1 857.637 62.8035)" fill="#74C4F2"/>
<rect width="2.74055" height="2.74056" transform="matrix(-1 0 0 1 863.27 62.6513)" fill="#74C4F2"/>
<rect width="3.04506" height="3.04506" transform="matrix(-1 0 0 1 869.056 62.499)" fill="#74C4F2"/>
<rect width="3.34957" height="3.34957" transform="matrix(-1 0 0 1 874.994 62.3467)" fill="#74C4F2"/>
<rect width="3.65407" height="3.65407" transform="matrix(-1 0 0 1 881.084 62.1945)" fill="#74C4F2"/>
<rect width="3.95858" height="3.95858" transform="matrix(-1 0 0 1 887.326 62.0423)" fill="#74C4F2"/>
<rect width="4.26309" height="4.26309" transform="matrix(-1 0 0 1 893.721 61.89)" fill="#74C4F2"/>
<rect width="4.8721" height="4.8721" transform="matrix(-1 0 0 1 906.967 61.5855)" fill="#74C4F2"/>
<rect width="5.1766" height="5.17661" transform="matrix(-1 0 0 1 913.818 61.4332)" fill="#74C4F2"/>
<rect width="5.48111" height="5.48111" transform="matrix(-1 0 0 1 920.822 61.281)" fill="#74C4F2"/>
<rect width="5.78561" height="5.78562" transform="matrix(-1 0 0 1 927.978 61.1287)" fill="#74C4F2"/>
<rect width="6.39463" height="6.39463" transform="matrix(-1 0 0 1 942.746 60.8242)" fill="#74C4F2"/>
<rect width="6.69913" height="6.69914" transform="matrix(-1 0 0 1 950.359 60.6719)" fill="#74C4F2"/>
<rect width="7.00364" height="7.00364" transform="matrix(-1 0 0 1 958.124 60.5197)" fill="#74C4F2"/>
<rect width="7.30815" height="7.30815" transform="matrix(-1 0 0 1 966.041 60.3675)" fill="#74C4F2"/>
<rect width="7.61265" height="7.61266" transform="matrix(-1 0 0 1 974.111 68.2582)" fill="#74C4F2"/>
<rect width="6.09012" height="6.09012" transform="matrix(-1 0 0 1 935.286 69.0195)" fill="#74C4F2"/>
<rect width="4.56759" height="4.56759" transform="matrix(-1 0 0 1 900.268 69.7808)" fill="#74C4F2"/>
<rect width="2.13154" height="2.13154" transform="matrix(-1 0 0 1 852.156 70.9988)" fill="#74C4F2"/>
<rect width="1.82704" height="1.82704" transform="matrix(-1 0 0 1 846.827 71.151)" fill="#74C4F2"/>
<rect width="2.43605" height="2.43605" transform="matrix(-1 0 0 1 857.637 70.8465)" fill="#74C4F2"/>
<rect width="2.74055" height="2.74056" transform="matrix(-1 0 0 1 863.27 70.6943)" fill="#74C4F2"/>
<rect width="3.04506" height="3.04506" transform="matrix(-1 0 0 1 869.056 70.542)" fill="#74C4F2"/>
<rect width="3.34957" height="3.34957" transform="matrix(-1 0 0 1 874.994 70.3898)" fill="#74C4F2"/>
<rect width="3.65407" height="3.65407" transform="matrix(-1 0 0 1 881.084 70.2375)" fill="#74C4F2"/>
<rect width="3.95858" height="3.95858" transform="matrix(-1 0 0 1 887.326 70.0853)" fill="#74C4F2"/>
<rect width="4.26309" height="4.26309" transform="matrix(-1 0 0 1 893.721 69.933)" fill="#74C4F2"/>
<rect width="4.8721" height="4.8721" transform="matrix(-1 0 0 1 906.967 69.6285)" fill="#74C4F2"/>
<rect width="5.1766" height="5.17661" transform="matrix(-1 0 0 1 913.818 69.4762)" fill="#74C4F2"/>
<rect width="5.48111" height="5.48111" transform="matrix(-1 0 0 1 920.822 69.324)" fill="#74C4F2"/>
<rect width="5.78561" height="5.78562" transform="matrix(-1 0 0 1 927.978 69.1718)" fill="#74C4F2"/>
<rect width="6.39463" height="6.39463" transform="matrix(-1 0 0 1 942.746 68.8672)" fill="#74C4F2"/>
<rect width="6.69913" height="6.69914" transform="matrix(-1 0 0 1 950.359 68.715)" fill="#74C4F2"/>
<rect width="7.00364" height="7.00364" transform="matrix(-1 0 0 1 958.124 68.5628)" fill="#74C4F2"/>
<rect width="7.30815" height="7.30815" transform="matrix(-1 0 0 1 966.041 68.4105)" fill="#74C4F2"/>
<rect width="7.61265" height="7.61266" transform="matrix(-1 0 0 1 974.111 76.3013)" fill="#74C4F2"/>
<rect width="6.09012" height="6.09012" transform="matrix(-1 0 0 1 935.286 77.0625)" fill="#74C4F2"/>
<rect width="4.56759" height="4.56759" transform="matrix(-1 0 0 1 900.268 77.8238)" fill="#74C4F2"/>
<rect width="2.13154" height="2.13154" transform="matrix(-1 0 0 1 852.156 79.0418)" fill="#74C4F2"/>
<rect width="1.82704" height="1.82704" transform="matrix(-1 0 0 1 846.827 79.1941)" fill="#74C4F2"/>
<rect width="2.43605" height="2.43605" transform="matrix(-1 0 0 1 857.637 78.8896)" fill="#74C4F2"/>
<rect width="2.74055" height="2.74056" transform="matrix(-1 0 0 1 863.27 78.7373)" fill="#74C4F2"/>
<rect width="3.04506" height="3.04506" transform="matrix(-1 0 0 1 869.056 78.5851)" fill="#74C4F2"/>
<rect width="3.34957" height="3.34957" transform="matrix(-1 0 0 1 874.994 78.4328)" fill="#74C4F2"/>
<rect width="3.65407" height="3.65407" transform="matrix(-1 0 0 1 881.084 78.2805)" fill="#74C4F2"/>
<rect width="3.95858" height="3.95858" transform="matrix(-1 0 0 1 887.326 78.1283)" fill="#74C4F2"/>
<rect width="4.26309" height="4.26309" transform="matrix(-1 0 0 1 893.721 77.9761)" fill="#74C4F2"/>
<rect width="4.8721" height="4.8721" transform="matrix(-1 0 0 1 906.967 77.6715)" fill="#74C4F2"/>
<rect width="5.1766" height="5.17661" transform="matrix(-1 0 0 1 913.818 77.5193)" fill="#74C4F2"/>
<rect width="5.48111" height="5.48111" transform="matrix(-1 0 0 1 920.822 77.3671)" fill="#74C4F2"/>
<rect width="5.78561" height="5.78562" transform="matrix(-1 0 0 1 927.978 77.2148)" fill="#74C4F2"/>
<rect width="6.39463" height="6.39463" transform="matrix(-1 0 0 1 942.746 76.9103)" fill="#74C4F2"/>
<rect width="6.69913" height="6.69914" transform="matrix(-1 0 0 1 950.359 76.758)" fill="#74C4F2"/>
<rect width="7.00364" height="7.00364" transform="matrix(-1 0 0 1 958.124 76.6058)" fill="#74C4F2"/>
<rect width="7.30815" height="7.30815" transform="matrix(-1 0 0 1 966.041 76.4535)" fill="#74C4F2"/>
<rect width="7.61265" height="7.61266" transform="matrix(-1 0 0 1 974.111 84.3443)" fill="#74C4F2"/>
<rect width="6.09012" height="6.09012" transform="matrix(-1 0 0 1 935.286 85.1056)" fill="#74C4F2"/>
<rect width="4.56759" height="4.56759" transform="matrix(-1 0 0 1 900.268 85.8668)" fill="#74C4F2"/>
<rect width="2.13154" height="2.13154" transform="matrix(-1 0 0 1 852.156 87.0848)" fill="#74C4F2"/>
<rect width="1.82704" height="1.82704" transform="matrix(-1 0 0 1 846.827 87.2371)" fill="#74C4F2"/>
<rect width="2.43605" height="2.43605" transform="matrix(-1 0 0 1 857.637 86.9326)" fill="#74C4F2"/>
<rect width="2.74055" height="2.74056" transform="matrix(-1 0 0 1 863.27 86.7804)" fill="#74C4F2"/>
<rect width="3.04506" height="3.04506" transform="matrix(-1 0 0 1 869.056 86.6281)" fill="#74C4F2"/>
<rect width="3.34957" height="3.34957" transform="matrix(-1 0 0 1 874.994 86.4758)" fill="#74C4F2"/>
<rect width="3.65407" height="3.65407" transform="matrix(-1 0 0 1 881.084 86.3236)" fill="#74C4F2"/>
<rect width="3.95858" height="3.95858" transform="matrix(-1 0 0 1 887.326 86.1713)" fill="#74C4F2"/>
<rect width="4.26309" height="4.26309" transform="matrix(-1 0 0 1 893.721 86.0191)" fill="#74C4F2"/>
<rect width="4.8721" height="4.8721" transform="matrix(-1 0 0 1 906.967 85.7146)" fill="#74C4F2"/>
<rect width="5.1766" height="5.17661" transform="matrix(-1 0 0 1 913.818 85.5623)" fill="#74C4F2"/>
<rect width="5.48111" height="5.48111" transform="matrix(-1 0 0 1 920.822 85.4101)" fill="#74C4F2"/>
<rect width="5.78561" height="5.78562" transform="matrix(-1 0 0 1 927.978 85.2578)" fill="#74C4F2"/>
<rect width="6.39463" height="6.39463" transform="matrix(-1 0 0 1 942.746 84.9533)" fill="#74C4F2"/>
<rect width="6.69913" height="6.69914" transform="matrix(-1 0 0 1 950.359 84.801)" fill="#74C4F2"/>
<rect width="7.00364" height="7.00364" transform="matrix(-1 0 0 1 958.124 84.6488)" fill="#74C4F2"/>
<rect width="7.30815" height="7.30815" transform="matrix(-1 0 0 1 966.041 84.4966)" fill="#74C4F2"/>
<rect width="7.61265" height="7.61266" transform="matrix(-1 0 0 1 974.111 92.3873)" fill="#74C4F2"/>
<rect width="6.09012" height="6.09012" transform="matrix(-1 0 0 1 935.286 93.1486)" fill="#74C4F2"/>
<rect width="4.56759" height="4.56759" transform="matrix(-1 0 0 1 900.268 93.9099)" fill="#74C4F2"/>
<rect width="2.13154" height="2.13154" transform="matrix(-1 0 0 1 852.156 95.1279)" fill="#74C4F2"/>
<rect width="1.82704" height="1.82704" transform="matrix(-1 0 0 1 846.827 95.2802)" fill="#74C4F2"/>
<rect width="2.43605" height="2.43605" transform="matrix(-1 0 0 1 857.637 94.9757)" fill="#74C4F2"/>
<rect width="2.74055" height="2.74056" transform="matrix(-1 0 0 1 863.27 94.8234)" fill="#74C4F2"/>
<rect width="3.04506" height="3.04506" transform="matrix(-1 0 0 1 869.056 94.6711)" fill="#74C4F2"/>
<rect width="3.34957" height="3.34957" transform="matrix(-1 0 0 1 874.994 94.5189)" fill="#74C4F2"/>
<rect width="3.65407" height="3.65407" transform="matrix(-1 0 0 1 881.084 94.3666)" fill="#74C4F2"/>
<rect width="3.95858" height="3.95858" transform="matrix(-1 0 0 1 887.326 94.2144)" fill="#74C4F2"/>
<rect width="4.26309" height="4.26309" transform="matrix(-1 0 0 1 893.721 94.0621)" fill="#74C4F2"/>
<rect width="4.8721" height="4.8721" transform="matrix(-1 0 0 1 906.967 93.7576)" fill="#74C4F2"/>
<rect width="5.1766" height="5.17661" transform="matrix(-1 0 0 1 913.818 93.6053)" fill="#74C4F2"/>
<rect width="5.48111" height="5.48111" transform="matrix(-1 0 0 1 920.822 93.4531)" fill="#74C4F2"/>
<rect width="5.78561" height="5.78562" transform="matrix(-1 0 0 1 927.978 93.3009)" fill="#74C4F2"/>
<rect width="6.39463" height="6.39463" transform="matrix(-1 0 0 1 942.746 92.9963)" fill="#74C4F2"/>
<rect width="6.69913" height="6.69914" transform="matrix(-1 0 0 1 950.359 92.8441)" fill="#74C4F2"/>
<rect width="7.00364" height="7.00364" transform="matrix(-1 0 0 1 958.124 92.6919)" fill="#74C4F2"/>
<rect width="7.30815" height="7.30815" transform="matrix(-1 0 0 1 966.041 92.5396)" fill="#74C4F2"/>
<path d="M974 0V119.016" stroke="#A2AAAD" stroke-width="5"/>
<path d="M28.2813 0L28.2812 119.016" stroke="#A2AAAD" stroke-width="5"/>
<defs>
<filter id="filter0_d_3_20" x="445" y="810" width="110" height="41" filterUnits="userSpaceOnUse" color-interpolation-filters="sRGB">
<feFlood flood-opacity="0" result="BackgroundImageFix"/>
<feColorMatrix in="SourceAlpha" type="matrix" values="0 0 0 0 0 0 0 0 0 0 0 0 0 0 0 0 0 0 127 0" result="hardAlpha"/>
<feOffset dy="1"/>
<feComposite in2="hardAlpha" operator="out"/>
<feColorMatrix type="matrix" values="0 0 0 0 0.490196 0 0 0 0 0.490196 0 0 0 0 0.498039 0 0 0 1 0"/>
<feBlend mode="normal" in2="BackgroundImageFix" result="effect1_dropShadow_3_20"/>
<feBlend mode="normal" in="SourceGraphic" in2="effect1_dropShadow_3_20" result="shape"/>
</filter>
<filter id="filter1_d_3_20" x="317.593" y="642" width="29.8148" height="8.27777" filterUnits="userSpaceOnUse" color-interpolation-filters="sRGB">
<feFlood flood-opacity="0" result="BackgroundImageFix"/>
<feColorMatrix in="SourceAlpha" type="matrix" values="0 0 0 0 0 0 0 0 0 0 0 0 0 0 0 0 0 0 127 0" result="hardAlpha"/>
<feOffset dy="0.5"/>
<feComposite in2="hardAlpha" operator="out"/>
<feColorMatrix type="matrix" values="0 0 0 0 0.862745 0 0 0 0 0.729412 0 0 0 0 0.439216 0 0 0 1 0"/>
<feBlend mode="normal" in2="BackgroundImageFix" result="effect1_dropShadow_3_20"/>
<feBlend mode="normal" in="SourceGraphic" in2="effect1_dropShadow_3_20" result="shape"/>
</filter>
<filter id="filter2_d_3_20" x="282.593" y="652" width="29.8148" height="8.27777" filterUnits="userSpaceOnUse" color-interpolation-filters="sRGB">
<feFlood flood-opacity="0" result="BackgroundImageFix"/>
<feColorMatrix in="SourceAlpha" type="matrix" values="0 0 0 0 0 0 0 0 0 0 0 0 0 0 0 0 0 0 127 0" result="hardAlpha"/>
<feOffset dy="0.5"/>
<feComposite in2="hardAlpha" operator="out"/>
<feColorMatrix type="matrix" values="0 0 0 0 0.690196 0 0 0 0 0.435294 0 0 0 0 0.521569 0 0 0 1 0"/>
<feBlend mode="normal" in2="BackgroundImageFix" result="effect1_dropShadow_3_20"/>
<feBlend mode="normal" in="SourceGraphic" in2="effect1_dropShadow_3_20" result="shape"/>
</filter>
<filter id="filter3_d_3_20" x="247.593" y="642" width="29.8148" height="8.27777" filterUnits="userSpaceOnUse" color-interpolation-filters="sRGB">
<feFlood flood-opacity="0" result="BackgroundImageFix"/>
<feColorMatrix in="SourceAlpha" type="matrix" values="0 0 0 0 0 0 0 0 0 0 0 0 0 0 0 0 0 0 127 0" result="hardAlpha"/>
<feOffset dy="0.5"/>
<feComposite in2="hardAlpha" operator="out"/>
<feColorMatrix type="matrix" values="0 0 0 0 0.690196 0 0 0 0 0.435294 0 0 0 0 0.521569 0 0 0 1 0"/>
<feBlend mode="normal" in2="BackgroundImageFix" result="effect1_dropShadow_3_20"/>
<feBlend mode="normal" in="SourceGraphic" in2="effect1_dropShadow_3_20" result="shape"/>
</filter>
<filter id="filter4_d_3_20" x="212.593" y="652" width="29.8148" height="8.27777" filterUnits="userSpaceOnUse" color-interpolation-filters="sRGB">
<feFlood flood-opacity="0" result="BackgroundImageFix"/>
<feColorMatrix in="SourceAlpha" type="matrix" values="0 0 0 0 0 0 0 0 0 0 0 0 0 0 0 0 0 0 127 0" result="hardAlpha"/>
<feOffset dy="0.5"/>
<feComposite in2="hardAlpha" operator="out"/>
<feColorMatrix type="matrix" values="0 0 0 0 0.690196 0 0 0 0 0.435294 0 0 0 0 0.521569 0 0 0 1 0"/>
<feBlend mode="normal" in2="BackgroundImageFix" result="effect1_dropShadow_3_20"/>
<feBlend mode="normal" in="SourceGraphic" in2="effect1_dropShadow_3_20" result="shape"/>
</filter>
<filter id="filter5_d_3_20" x="177.593" y="642" width="29.8148" height="8.27777" filterUnits="userSpaceOnUse" color-interpolation-filters="sRGB">
<feFlood flood-opacity="0" result="BackgroundImageFix"/>
<feColorMatrix in="SourceAlpha" type="matrix" values="0 0 0 0 0 0 0 0 0 0 0 0 0 0 0 0 0 0 127 0" result="hardAlpha"/>
<feOffset dy="0.5"/>
<feComposite in2="hardAlpha" operator="out"/>
<feColorMatrix type="matrix" values="0 0 0 0 0.690196 0 0 0 0 0.435294 0 0 0 0 0.521569 0 0 0 1 0"/>
<feBlend mode="normal" in2="BackgroundImageFix" result="effect1_dropShadow_3_20"/>
<feBlend mode="normal" in="SourceGraphic" in2="effect1_dropShadow_3_20" result="shape"/>
</filter>
<filter id="filter6_d_3_20" x="792.593" y="642" width="29.8148" height="8.27777" filterUnits="userSpaceOnUse" color-interpolation-filters="sRGB">
<feFlood flood-opacity="0" result="BackgroundImageFix"/>
<feColorMatrix in="SourceAlpha" type="matrix" values="0 0 0 0 0 0 0 0 0 0 0 0 0 0 0 0 0 0 127 0" result="hardAlpha"/>
<feOffset dy="0.5"/>
<feComposite in2="hardAlpha" operator="out"/>
<feColorMatrix type="matrix" values="0 0 0 0 0.862745 0 0 0 0 0.729412 0 0 0 0 0.439216 0 0 0 1 0"/>
<feBlend mode="normal" in2="BackgroundImageFix" result="effect1_dropShadow_3_20"/>
<feBlend mode="normal" in="SourceGraphic" in2="effect1_dropShadow_3_20" result="shape"/>
</filter>
<filter id="filter7_d_3_20" x="757.593" y="652" width="29.8148" height="8.27777" filterUnits="userSpaceOnUse" color-interpolation-filters="sRGB">
<feFlood flood-opacity="0" result="BackgroundImageFix"/>
<feColorMatrix in="SourceAlpha" type="matrix" values="0 0 0 0 0 0 0 0 0 0 0 0 0 0 0 0 0 0 127 0" result="hardAlpha"/>
<feOffset dy="0.5"/>
<feComposite in2="hardAlpha" operator="out"/>
<feColorMatrix type="matrix" values="0 0 0 0 0.690196 0 0 0 0 0.435294 0 0 0 0 0.521569 0 0 0 1 0"/>
<feBlend mode="normal" in2="BackgroundImageFix" result="effect1_dropShadow_3_20"/>
<feBlend mode="normal" in="SourceGraphic" in2="effect1_dropShadow_3_20" result="shape"/>
</filter>
<filter id="filter8_d_3_20" x="722.593" y="642" width="29.8148" height="8.27777" filterUnits="userSpaceOnUse" color-interpolation-filters="sRGB">
<feFlood flood-opacity="0" result="BackgroundImageFix"/>
<feColorMatrix in="SourceAlpha" type="matrix" values="0 0 0 0 0 0 0 0 0 0 0 0 0 0 0 0 0 0 127 0" result="hardAlpha"/>
<feOffset dy="0.5"/>
<feComposite in2="hardAlpha" operator="out"/>
<feColorMatrix type="matrix" values="0 0 0 0 0.690196 0 0 0 0 0.435294 0 0 0 0 0.521569 0 0 0 1 0"/>
<feBlend mode="normal" in2="BackgroundImageFix" result="effect1_dropShadow_3_20"/>
<feBlend mode="normal" in="SourceGraphic" in2="effect1_dropShadow_3_20" result="shape"/>
</filter>
<filter id="filter9_d_3_20" x="687.593" y="652" width="29.8148" height="8.27777" filterUnits="userSpaceOnUse" color-interpolation-filters="sRGB">
<feFlood flood-opacity="0" result="BackgroundImageFix"/>
<feColorMatrix in="SourceAlpha" type="matrix" values="0 0 0 0 0 0 0 0 0 0 0 0 0 0 0 0 0 0 127 0" result="hardAlpha"/>
<feOffset dy="0.5"/>
<feComposite in2="hardAlpha" operator="out"/>
<feColorMatrix type="matrix" values="0 0 0 0 0.690196 0 0 0 0 0.435294 0 0 0 0 0.521569 0 0 0 1 0"/>
<feBlend mode="normal" in2="BackgroundImageFix" result="effect1_dropShadow_3_20"/>
<feBlend mode="normal" in="SourceGraphic" in2="effect1_dropShadow_3_20" result="shape"/>
</filter>
<filter id="filter10_d_3_20" x="652.593" y="642" width="29.8148" height="8.27777" filterUnits="userSpaceOnUse" color-interpolation-filters="sRGB">
<feFlood flood-opacity="0" result="BackgroundImageFix"/>
<feColorMatrix in="SourceAlpha" type="matrix" values="0 0 0 0 0 0 0 0 0 0 0 0 0 0 0 0 0 0 127 0" result="hardAlpha"/>
<feOffset dy="0.5"/>
<feComposite in2="hardAlpha" operator="out"/>
<feColorMatrix type="matrix" values="0 0 0 0 0.690196 0 0 0 0 0.435294 0 0 0 0 0.521569 0 0 0 1 0"/>
<feBlend mode="normal" in2="BackgroundImageFix" result="effect1_dropShadow_3_20"/>
<feBlend mode="normal" in="SourceGraphic" in2="effect1_dropShadow_3_20" result="shape"/>
</filter>
<linearGradient id="paint0_linear_3_20" x1="499.609" y1="165.891" x2="499.609" y2="609.641" gradientUnits="userSpaceOnUse">
<stop stop-color="#0D0D0D"/>
<stop offset="1" stop-color="#28174E"/>
</linearGradient>
</defs>
</svg>
